<?xml version="1.0" encoding="UTF-8"?>
<svg version="1.1" xmlns="http://www.w3.org/2000/svg" width="1200" height="1200">
<path d="M0 0 C123.09 0 246.18 0 373 0 C373 42.24 373 84.48 373 128 C442.96 128 512.92 128 585 128 C585 85.76 585 43.52 585 0 C754.62 0 924.24 0 1099 0 C1099 42.9 1099 85.8 1099 130 C1036.3 130 973.6 130 909 130 C909 202.6 909 275.2 909 350 C866.43 350 823.86 350 780 350 C780 396.86 780 443.72 780 492 C822.57 492 865.14 492 909 492 C909 626.31 909 760.62 909 899 C608.37 899 307.74 899 -2 899 C-2 803.96 -2 708.92 -2 611 C42.88 611 87.76 611 134 611 C134 559.52 134 508.04 134 455 C89.78 455 45.56 455 0 455 C0 304.85 0 154.7 0 0 Z " fill="#1FC2F2" transform="translate(99,150)"/>
<path d="M0 0 C42.9 0 85.8 0 130 0 C130 134.31 130 268.62 130 407 C-170.63 407 -471.26 407 -781 407 C-781 311.96 -781 216.92 -781 119 C-736.12 119 -691.24 119 -645 119 C-645 168.5 -645 218 -645 269 C-557.55 269 -470.1 269 -380 269 C-380 200.69 -380 132.38 -380 62 C-337.1 62 -294.2 62 -250 62 C-250 130.31 -250 198.62 -250 269 C-167.5 269 -85 269 0 269 C0 180.23 0 91.46 0 0 Z " fill="#221F20" transform="translate(878,642)"/>
<path d="M0 0 C169.62 0 339.24 0 514 0 C514 42.9 514 85.8 514 130 C451.3 130 388.6 130 324 130 C324 202.6 324 275.2 324 350 C280.77 350 237.54 350 193 350 C193 277.07 193 204.14 193 129 C129.31 129 65.62 129 0 129 C0 86.43 0 43.86 0 0 Z " fill="#231F20" transform="translate(684,150)"/>
<path d="M0 0 C123.09 0 246.18 0 373 0 C373 42.57 373 85.14 373 129 C294.13 129 215.26 129 134 129 C134 236.58 134 344.16 134 455 C89.78 455 45.56 455 0 455 C0 304.85 0 154.7 0 0 Z " fill="#231F20" transform="translate(99,150)"/>
</svg>
